<?xml version="1.0" encoding="UTF-8" standalone="no"?>
<!DOCTYPE svg PUBLIC "-//W3C//DTD SVG 1.1//EN"
 "http://www.w3.org/Graphics/SVG/1.1/DTD/svg11.dtd">
<!-- Generated by graphviz version 2.40.1 (20161225.0304)
 -->
<!-- Title: dependencies Pages: 1 -->
<svg width="504pt" height="284pt"
 viewBox="0.00 0.00 504.00 284.00" xmlns="http://www.w3.org/2000/svg" xmlns:xlink="http://www.w3.org/1999/xlink">
<g id="graph0" class="graph" transform="scale(1 1) rotate(0) translate(4 280)">
<title>dependencies</title>
<polygon fill="#ffffff" stroke="transparent" points="-4,4 -4,-280 500,-280 500,4 -4,4"/>
<text text-anchor="start" x="227.0091" y="-42.4" font-family="sans-serif" font-weight="bold" font-size="14.00" fill="#000000">Legend</text>
<polygon fill="#ffffb3" stroke="transparent" points="14,-10 14,-30 34,-30 34,-10 14,-10"/>
<text text-anchor="start" x="37.629" y="-15.4" font-family="sans-serif" font-size="14.00" fill="#000000"> &#160;Declarations</text>
<polygon fill="#8dd3c7" stroke="transparent" points="127,-10 127,-30 147,-30 147,-10 127,-10"/>
<text text-anchor="start" x="150.7251" y="-15.4" font-family="sans-serif" font-size="14.00" fill="#000000"> &#160;Module</text>
<polygon fill="#80b1d3" stroke="transparent" points="213,-10 213,-30 233,-30 233,-10 213,-10"/>
<text text-anchor="start" x="236.7812" y="-15.4" font-family="sans-serif" font-size="14.00" fill="#000000"> &#160;Bootstrap</text>
<polygon fill="#fdb462" stroke="transparent" points="310,-10 310,-30 330,-30 330,-10 310,-10"/>
<text text-anchor="start" x="333.6732" y="-15.4" font-family="sans-serif" font-size="14.00" fill="#000000"> &#160;Providers</text>
<polygon fill="#fb8072" stroke="transparent" points="406,-10 406,-30 426,-30 426,-10 406,-10"/>
<text text-anchor="start" x="429.7258" y="-15.4" font-family="sans-serif" font-size="14.00" fill="#000000"> &#160;Exports</text>
<g id="clust1" class="cluster">
<title>cluster_AngularDraggableModule</title>
<polygon fill="none" stroke="#000000" stroke-dasharray="1,5" points="49,-70 49,-268 447,-268 447,-70 49,-70"/>
</g>
<g id="clust2" class="cluster">
<title>cluster_AngularDraggableModule_declarations</title>
<polygon fill="none" stroke="#000000" points="61,-78 61,-130 435,-130 435,-78 61,-78"/>
</g>
<g id="clust6" class="cluster">
<title>cluster_AngularDraggableModule_exports</title>
<polygon fill="none" stroke="#000000" points="57,-208 57,-260 439,-260 439,-208 57,-208"/>
</g>
<!-- AngularDraggableDirective -->
<g id="node1" class="node">
<title>AngularDraggableDirective</title>
<polygon fill="#ffffb3" stroke="#000000" points="427.257,-122 254.743,-122 254.743,-86 427.257,-86 427.257,-122"/>
<text text-anchor="middle" x="341" y="-99.8" font-family="Times,serif" font-size="14.00" fill="#000000">AngularDraggableDirective</text>
</g>
<!-- AngularDraggableModule -->
<g id="node3" class="node">
<title>AngularDraggableModule</title>
<polygon fill="#8dd3c7" stroke="#000000" points="235.724,-187 232.724,-191 211.724,-191 208.724,-187 72.276,-187 72.276,-151 235.724,-151 235.724,-187"/>
<text text-anchor="middle" x="154" y="-164.8" font-family="Times,serif" font-size="14.00" fill="#000000">AngularDraggableModule</text>
</g>
<!-- AngularDraggableDirective&#45;&gt;AngularDraggableModule -->
<g id="edge1" class="edge">
<title>AngularDraggableDirective&#45;&gt;AngularDraggableModule</title>
<path fill="none" stroke="#000000" d="M369.7928,-122.0225C369.7928,-139.3734 369.7928,-163 369.7928,-163 369.7928,-163 245.8897,-163 245.8897,-163"/>
<polygon fill="#000000" stroke="#000000" points="245.8897,-159.5001 235.8897,-163 245.8897,-166.5001 245.8897,-159.5001"/>
</g>
<!-- AngularResizableDirective -->
<g id="node2" class="node">
<title>AngularResizableDirective</title>
<polygon fill="#ffffb3" stroke="#000000" points="237.3764,-122 68.6236,-122 68.6236,-86 237.3764,-86 237.3764,-122"/>
<text text-anchor="middle" x="153" y="-99.8" font-family="Times,serif" font-size="14.00" fill="#000000">AngularResizableDirective</text>
</g>
<!-- AngularResizableDirective&#45;&gt;AngularDraggableModule -->
<g id="edge2" class="edge">
<title>AngularResizableDirective&#45;&gt;AngularDraggableModule</title>
<path fill="none" stroke="#000000" d="M154,-122.1061C154,-122.1061 154,-140.991 154,-140.991"/>
<polygon fill="#000000" stroke="#000000" points="150.5001,-140.9909 154,-150.991 157.5001,-140.991 150.5001,-140.9909"/>
</g>
<!-- AngularDraggableDirective  -->
<g id="node4" class="node">
<title>AngularDraggableDirective </title>
<polygon fill="#fb8072" stroke="#000000" points="430.757,-252 255.243,-252 255.243,-216 430.757,-216 430.757,-252"/>
<text text-anchor="middle" x="343" y="-229.8" font-family="Times,serif" font-size="14.00" fill="#000000">AngularDraggableDirective </text>
</g>
<!-- AngularDraggableModule&#45;&gt;AngularDraggableDirective  -->
<g id="edge3" class="edge">
<title>AngularDraggableModule&#45;&gt;AngularDraggableDirective </title>
<path fill="none" stroke="#000000" stroke-dasharray="5,2" d="M236.0135,-175C274.6781,-175 312.4572,-175 312.4572,-175 312.4572,-175 312.4572,-205.9775 312.4572,-205.9775"/>
<polygon fill="#000000" stroke="#000000" points="308.9573,-205.9774 312.4572,-215.9775 315.9573,-205.9775 308.9573,-205.9774"/>
</g>
<!-- AngularResizableDirective  -->
<g id="node5" class="node">
<title>AngularResizableDirective </title>
<polygon fill="#fb8072" stroke="#000000" points="236.876,-252 65.124,-252 65.124,-216 236.876,-216 236.876,-252"/>
<text text-anchor="middle" x="151" y="-229.8" font-family="Times,serif" font-size="14.00" fill="#000000">AngularResizableDirective </text>
</g>
<!-- AngularDraggableModule&#45;&gt;AngularResizableDirective  -->
<g id="edge4" class="edge">
<title>AngularDraggableModule&#45;&gt;AngularResizableDirective </title>
<path fill="none" stroke="#000000" stroke-dasharray="5,2" d="M154,-187.1061C154,-187.1061 154,-205.991 154,-205.991"/>
<polygon fill="#000000" stroke="#000000" points="150.5001,-205.9909 154,-215.991 157.5001,-205.991 150.5001,-205.9909"/>
</g>
</g>
</svg>
